<?xml version="1.0" standalone="no"?>
<!DOCTYPE svg PUBLIC "-//W3C//DTD SVG 20010904//EN"
 "http://www.w3.org/TR/2001/REC-SVG-20010904/DTD/svg10.dtd">
<svg version="1.0" xmlns="http://www.w3.org/2000/svg"
 width="176.000000pt" height="176.000000pt" viewBox="0 0 176.000000 176.000000"
 preserveAspectRatio="xMidYMid meet">
<metadata>
Created by potrace 1.14, written by Peter Selinger 2001-2017
</metadata>
<g transform="translate(0.000000,176.000000) scale(0.100000,-0.100000)"
fill="#000000" stroke="none">
<path d="M993 1409 c-67 -19 -89 -117 -38 -168 24 -24 32 -26 139 -29 121 -4
131 0 119 47 -5 19 -12 21 -98 21 -72 0 -97 4 -109 16 -20 19 -20 19 0 38 12
12 37 16 110 16 l94 0 0 35 0 35 -92 -1 c-51 0 -108 -5 -125 -10z"/>
<path d="M681 1280 c-57 -16 -108 -33 -113 -38 -5 -5 -10 -24 -10 -41 -1 -28
-4 -32 -22 -26 -44 13 -81 15 -94 7 -15 -10 -17 -24 -27 -172 -4 -58 -9 -112
-10 -120 -1 -8 1 -25 6 -37 10 -28 32 -29 126 -7 90 21 95 22 114 23 37 2 54
27 58 88 1 8 13 8 49 -1 52 -14 86 -7 96 19 3 9 4 40 1 68 -8 68 -13 142 -14
194 -1 41 -21 74 -44 72 -7 0 -59 -13 -116 -29z m115 -65 c1 -28 4 -90 8 -139
l5 -88 -44 5 c-60 8 -64 12 -60 54 6 61 -7 79 -69 97 -54 16 -56 18 -56 50 0
31 3 34 40 40 51 8 48 7 95 22 69 22 80 16 81 -41z m-263 -74 c22 -9 25 -16
26 -66 0 -60 12 -85 40 -85 9 0 32 -5 51 -10 28 -8 36 -15 38 -35 2 -31 -13
-39 -108 -56 -131 -23 -126 -25 -121 56 1 39 4 84 6 100 2 17 3 47 4 68 1 40
15 46 64 28z m127 -31 c22 -6 25 -12 26 -54 l0 -47 -50 6 c-28 4 -52 8 -53 9
-3 3 -5 42 -4 74 1 35 -3 34 81 12z"/>
<path d="M934 1181 c-2 -2 -4 -17 -4 -32 0 -25 4 -28 38 -31 l37 -3 -37 -17
c-34 -15 -38 -21 -38 -52 0 -20 2 -36 5 -36 3 0 28 12 56 26 45 22 52 23 62
10 29 -37 111 -40 142 -6 11 13 18 40 20 84 l3 65 -140 -2 c-77 -1 -142 -4
-144 -6z"/>
<path d="M940 982 c-5 -2 -10 -30 -10 -62 0 -52 3 -61 30 -84 29 -24 44 -26
90 -11 11 3 22 15 26 27 3 12 9 16 13 10 9 -15 57 -25 84 -18 30 7 47 44 47
100 l0 44 -135 -2 c-74 0 -139 -2 -145 -4z"/>
<path d="M343 773 c-10 -3 -13 -42 -13 -144 l0 -139 73 0 73 0 -1 30 c0 30 -6
34 -52 32 -22 -1 -23 2 -24 91 -1 51 0 98 1 106 3 23 -28 36 -57 24z"/>
<path d="M580 773 c-39 -12 -63 -30 -76 -55 -17 -33 -18 -137 -2 -173 23 -51
109 -72 157 -39 34 24 50 71 47 142 -2 55 -6 67 -32 93 -30 29 -65 42 -94 32z"/>
<path d="M791 767 c-40 -20 -61 -58 -65 -117 -7 -108 28 -160 106 -160 39 0
54 5 73 25 14 13 25 28 25 33 0 13 -52 34 -59 24 -13 -19 -44 -22 -62 -6 -24
22 -26 105 -3 128 20 21 33 20 58 -3 20 -19 22 -19 45 -2 28 21 24 42 -11 65
-33 22 -79 27 -107 13z"/>
<path d="M1026 771 c-2 -3 -18 -53 -35 -111 -18 -58 -37 -118 -42 -134 -5 -16
-9 -31 -9 -32 0 -2 17 -4 38 -4 36 0 40 3 50 38 11 35 15 38 41 34 22 -3 31
-11 38 -35 8 -28 13 -32 50 -35 l40 -3 -18 58 c-10 32 -29 96 -43 143 l-26 86
-40 0 c-23 0 -42 -2 -44 -5z"/>
<path d="M1210 634 l0 -144 70 0 c39 0 70 3 71 8 0 4 2 17 3 30 2 12 0 22 -3
23 -3 0 -22 2 -41 2 l-34 2 -1 110 0 110 -32 1 -33 1 0 -143z"/>
<path d="M939 390 c-5 -33 -3 -60 6 -63 5 -2 36 -2 68 -1 66 2 66 0 -11 -41
-38 -21 -58 -39 -62 -55 -12 -48 -7 -50 146 -50 l144 0 0 35 0 34 -67 3 -68 3
68 38 c64 36 68 41 65 70 l-3 32 -142 0 c-79 0 -143 -2 -144 -5z"/>
</g>
</svg>
